<?xml version="1.0" encoding="UTF-8" standalone="no"?>
<!-- Created with Inkscape (http://www.inkscape.org/) -->

<svg
   width="210mm"
   height="297mm"
   viewBox="0 0 210 297"
   version="1.1"
   id="svg1"
   xml:space="preserve"
   xmlns="http://www.w3.org/2000/svg"
   xmlns:svg="http://www.w3.org/2000/svg"><defs
     id="defs1" /><circle
     style="fill:#63e1ca;stroke-width:0.343958;fill-opacity:1"
     id="path1"
     cx="105"
     cy="141.96404"
     r="95.075439" /><g
     id="layer1"><path
       style="fill:#000000"
       d="m 39.278195,149.4743 0.132724,0.26283 z m 65.333095,72.38648 c -1.48557,-4.87807 -9.028775,-9.52462 -8.735655,-5.38109 0.0755,1.06747 0.0259,1.23744 -0.30892,1.05796 -0.6402,-0.34321 -3.25621,-3.1939 -4.20436,-4.58153 -0.92325,-1.35121 -1.879041,-1.26381 -1.879041,0.17183 0,0.69829 -2.660466,-2.81367 -3.744336,-4.94272 -0.907422,-1.78246 -2.860575,-7.43282 -2.866351,-8.29219 -0.01103,-1.64156 -1.353883,-0.31876 -2.027023,1.99676 -0.499733,1.71902 -0.380211,5.06652 0.244619,6.85117 0.216533,0.61846 0.353409,1.12448 0.304168,1.12448 -0.576959,0 -4.107936,-7.75666 -4.491759,-9.86725 -0.458192,-2.51953 -2.461578,1.18254 -2.518924,4.65475 -0.01614,0.97738 -0.151789,0.71249 -1.124479,-2.19584 -1.087415,-3.25135 -1.550589,-3.91193 -1.721794,-2.45562 -0.195167,1.66013 -0.772782,0.9259 -1.740827,-2.21285 -0.586609,-1.902 11.483679,-8.273 12.931244,-6.82544 3.416311,3.41631 11.377733,3.49093 17.721598,0.1661 4.53984,-2.37934 5.12117,-4.76038 1.92245,-7.87416 -0.75857,-0.73842 -1.68805,-1.81523 -2.06552,-2.39292 -0.479775,-0.73425 -1.236175,-1.33992 -2.513535,-2.01266 -2.38675,-1.25702 -7.64859,-8.40703 -6.1869,-8.40703 0.12291,0 0.26783,-0.32742 0.32204,-0.72761 0.0877,-0.64758 0.19515,-0.52924 0.97683,1.07602 0.87826,1.80362 0.87826,1.80362 1.57265,1.1542 1.40368,-1.31276 3.12526,-1.34982 6.109475,-0.13151 3.21498,1.31251 5.38327,1.33341 8.88555,0.0856 3.39122,-1.20823 4.94703,-1.2063 6.21417,0.008 0.42825,0.41028 0.82173,0.69512 0.87441,0.63297 0.0527,-0.0622 0.42483,-0.82738 0.82698,-1.70051 0.45801,-0.99438 0.78407,-1.43922 0.87269,-1.19062 0.0778,0.21828 0.24963,0.46771 0.38179,0.55429 1.07958,0.70722 -3.40508,7.25711 -5.84774,8.54069 -1.01821,0.53506 -2.12569,1.34251 -2.46107,1.79436 -0.33539,0.45184 -1.20454,1.43103 -1.93145,2.17599 -3.75541,3.84863 -3.21194,6.13396 2.07964,8.74494 6.14262,3.0309 12.80701,2.91477 16.54917,-0.28838 1.12558,-0.96345 1.12558,-0.96345 2.62484,-0.35275 4.71025,1.91866 11.02416,5.76749 10.77746,6.56973 -1.24531,4.04969 -1.28135,4.13714 -1.48962,3.61425 -0.11592,-0.29104 -0.21913,-0.80698 -0.22936,-1.14652 -0.0317,-1.05335 -0.65238,-0.49139 -1.14007,1.03226 -0.25301,0.79045 -0.74962,2.33015 -1.10359,3.42156 l -0.64358,1.98437 -0.0224,-1.98437 c -0.0512,-4.54681 -1.78657,-6.8052 -2.7446,-3.57188 -0.21559,0.7276 -0.8385,2.33495 -1.38424,3.57188 -1.63908,3.71499 -3.38131,6.527 -2.44451,3.9455 0.64731,-1.78373 0.43162,-5.99078 -0.39795,-7.76216 -0.86599,-1.84914 -1.00628,-1.77256 -1.765,0.96342 -1.55242,5.59808 -6.1598,13.41608 -6.69326,11.35741 -0.30068,-1.16037 -0.82636,-1.03828 -1.83208,0.42551 -2.5278,3.67912 -4.34512,5.00206 -4.33143,3.15312 0.0305,-4.12332 -7.4229,1.11989 -8.70542,6.12394 -0.31783,1.24013 -0.31783,1.24013 -0.89502,-0.65516 z m -1.25347,-10.0483 c -0.22171,-1.77449 0.10131,-1.74662 1.03433,0.0893 0.61298,1.20616 0.61298,1.20616 1.45329,-0.28278 1.10362,-1.95552 1.46036,-1.92875 1.31372,0.0986 -0.14416,1.99292 -0.12069,1.98715 1.63873,-0.40314 0.80036,-1.08735 1.47419,-1.97725 1.4974,-1.97756 0.0908,-0.001 -0.65378,2.61512 -0.82141,2.88634 -0.73269,1.18552 2.46067,-1.54477 3.8407,-3.28377 0.79219,-0.99824 1.02514,1.12884 0.32379,2.95653 -0.47004,1.22491 1.05007,-0.25855 2.90442,-2.8344 0.46637,-0.64783 0.46807,-0.64355 0.32041,0.80392 -0.17211,1.68717 0.70051,1.01019 2.30207,-1.78593 1.03879,-1.81361 1.19437,-1.87469 1.53672,-0.60331 0.38996,1.44822 0.62682,1.3481 1.40412,-0.59355 1.74642,-4.36248 1.54384,-10.82556 -0.30929,-9.86727 -1.23513,0.63871 -1.41441,1.03207 -1.23771,2.71575 0.16113,1.53535 0.16113,1.53535 -0.3563,0.26335 -1.11579,-2.74297 -2.52215,-3.88738 -4.7772,-3.88738 -1.06683,0 -1.33606,0.0882 -1.33606,0.43788 0,0.39753 -0.0476,0.39485 -0.51595,-0.029 -0.40048,-0.36243 -0.77058,-0.42926 -1.65365,-0.2986 -0.62573,0.0926 -1.57694,0.16284 -2.11381,0.15613 -0.63609,-0.008 -1.06005,0.13777 -1.21704,0.41829 -0.21482,0.38386 -0.35984,0.35541 -1.33898,-0.26269 -1.09807,-0.69318 -1.09807,-0.69318 -1.09807,0.10389 0,0.81669 -0.43409,1.0881 -0.68685,0.42943 -0.0816,-0.21255 -0.35709,-0.31114 -0.65315,-0.23372 -0.28164,0.0737 -0.51207,9.6e-4 -0.51207,-0.16153 0,-0.44793 -1.08507,-0.35327 -1.63282,0.14244 -0.57907,0.52405 -0.70311,-0.063 -0.20855,-0.98707 0.26861,-0.50191 0.25415,-0.50151 -0.59532,0.0164 -0.94408,0.5756 -1.79665,0.69737 -1.79665,0.2566 0,-0.1519 -0.148825,-0.24627 -0.330725,-0.20972 -0.1819,0.0366 -0.66954,-0.0229 -1.08364,-0.13208 -0.47173,-0.1244 -0.8938,-0.0816 -1.13016,0.11454 -0.23273,0.19315 -1.17217,0.29393 -2.45224,0.26308 -2.48718,-0.0599 -3.44658,0.63482 -4.82353,3.49304 -0.79108,1.64212 -0.79108,1.64212 -0.608945,0.34682 0.100175,-0.71241 0.195782,-1.46986 0.212462,-1.68322 0.01668,-0.21335 -0.420389,-0.67668 -0.971265,-1.02961 -2.219801,-1.42216 -2.71764,4.29695 -0.819749,9.41718 0.805804,2.17395 0.983465,2.26235 1.492125,0.74251 0.376339,-1.12448 0.376339,-1.12448 1.574502,0.7276 1.92637,2.97773 2.67306,3.52266 2.44219,1.78226 -0.2255,-1.6999 -0.15128,-1.7108 0.87527,-0.12861 1.75363,2.70281 2.16683,2.79044 2.0082,0.42589 -0.13951,-2.07954 -0.13951,-2.07954 0.53786,-1.28579 0.37255,0.43657 0.68165,0.86859 0.68689,0.96005 0.0141,0.24718 2.927295,2.69265 3.055215,2.56473 0.0604,-0.0604 -0.06,-0.75357 -0.26758,-1.5404 -0.507855,-1.92521 -0.43576,-1.90165 1.20612,0.39413 1.70249,2.38054 1.93223,2.44784 1.68818,0.49457 z M 92.746505,196.72447 c 0.097,-0.097 0.25577,-0.097 0.35278,0 0.097,0.097 0.0176,0.17639 -0.17639,0.17639 -0.19403,0 -0.2734,-0.0794 -0.17639,-0.17639 z m 0.79375,-0.26458 c 0.097,-0.097 0.25577,-0.097 0.35278,0 0.097,0.097 0.0176,0.17639 -0.17639,0.17639 -0.19403,0 -0.2734,-0.0794 -0.17639,-0.17639 z M 104.4333,179.69764 c 0.59162,-3.04595 0.7379,-3.09544 1.32386,-0.44796 0.65996,2.98183 0.75422,3.09672 1.31147,1.59865 1.93367,-5.19841 4.8397,-8.00813 7.49497,-7.24661 0.96162,0.27579 1.14259,0.12486 0.83273,-0.6945 -0.52185,-1.37989 -2.61488,-1.51579 -5.28642,-0.34325 -3.62063,1.58911 -6.01472,1.61299 -9.71564,0.0969 -3.305645,-1.35415 -5.619285,-1.12708 -5.619285,0.55151 0,0.5347 0.10174,0.56383 1.59296,0.45596 2.69939,-0.19526 4.845855,1.92954 6.533405,6.46743 0.91573,2.4624 0.97167,2.4464 1.53195,-0.43815 z m -42.28559,17.31388 c -0.09083,-0.57019 -0.198485,-1.26897 -0.239245,-1.55285 -0.20222,-1.4084 7.844234,-5.80381 8.693976,-4.74911 0.673578,0.83604 1.073231,0.67207 1.29932,-0.53309 0.110228,-0.58756 0.384617,-0.98459 0.816447,-1.18134 0.819059,-0.37319 0.887877,-0.37056 0.900041,0.0344 0.04892,1.62847 1.834606,2.30053 1.838213,0.69182 0.0033,-1.4773 3.616913,-3.9477 4.098797,-2.8021 0.01382,0.0329 0.393455,0.66963 0.843624,1.41504 0.818489,1.35527 0.818489,1.35527 -1.200102,2.23827 -2.636137,1.15312 -5.240952,2.62085 -7.746566,4.36492 -2.023809,1.40871 -2.023809,1.40871 -2.724422,0.35001 -1.423447,-2.15097 -2.89162,-1.69864 -5.595858,1.72405 -0.819088,1.0367 -0.819088,1.0367 -0.984225,0 z m 84.1277,-0.80454 c -2.47518,-2.7203 -4.23628,-2.8252 -5.16753,-0.30781 -0.15631,0.42253 -0.48963,0.26656 -2.68433,-1.25612 -1.37823,-0.95621 -3.99415,-2.46684 -5.81316,-3.35696 -3.92498,-1.92065 -3.62992,-1.71313 -3.22647,-2.26927 0.17968,-0.24769 0.50148,-0.83009 0.71511,-1.29424 0.38843,-0.84391 0.38843,-0.84391 2.29217,-0.31635 2.48515,0.68867 2.38946,0.59349 2.3269,2.31434 -0.0696,1.9149 -0.0321,2.11892 0.28858,1.56888 0.14494,-0.24861 0.42429,-0.39034 0.62077,-0.31494 0.21694,0.0832 0.41794,-0.10291 0.5118,-0.47401 0.37418,-1.47935 2.08267,-1.51783 2.56453,-0.0577 0.31117,0.94284 0.31117,0.94284 0.9303,0.3612 1.28413,-1.20638 9.00455,3.34597 8.70387,5.13226 -0.35581,2.11378 -0.38242,2.11728 -2.06254,0.27077 z m -85.015118,-2.66491 c -0.0945,-0.26272 -0.628795,-1.54923 -1.187317,-2.85892 -0.558521,-1.30968 -1.015774,-2.5006 -1.016118,-2.64647 -0.0011,-0.46538 3.515863,-2.54183 3.808886,-2.24881 0.394089,0.39409 0.611216,0.32424 0.75994,-0.24448 0.101724,-0.389 2.406154,-1.8717 2.90901,-1.8717 0.04825,0 0.09638,0.98227 0.106973,2.18282 0.02752,3.12042 0.624647,4.48741 1.271324,2.91041 0.546839,-1.33353 0.826925,-1.4152 1.069271,-0.31181 0.20851,0.94934 0.308319,0.81825 -1.19478,1.56923 -0.654844,0.32718 -2.202656,1.2645 -3.439583,2.08295 -1.236927,0.81844 -2.398994,1.58401 -2.58237,1.70126 -0.213466,0.1365 -0.395227,0.0413 -0.505236,-0.26448 z m 85.613278,-0.87033 c -0.81374,-0.56503 -2.45623,-1.51981 -3.64999,-2.12174 -1.92274,-0.96952 -2.15034,-1.16026 -1.9942,-1.67126 0.40881,-1.33785 0.56744,-1.36224 1.17059,-0.17996 0.82991,1.62675 1.19063,0.89526 1.19063,-2.41445 0,-2.48059 1.65036,-2.93586 3.20416,-0.8839 0.16157,0.21336 0.50731,0.38793 0.76833,0.38793 0.58618,0 3.89332,1.82287 3.78151,2.08433 -0.0446,0.1043 -0.61128,1.46393 -1.2593,3.0214 -1.33741,3.21438 -1.22899,3.15437 -3.21173,1.77765 z M 52.764659,190.4594 c -0.09913,-3.2506 -0.387145,-4.92567 -1.917735,-11.15333 -0.715302,-2.91042 -1.378704,-5.79768 -1.474228,-6.41615 -0.402011,-2.60279 -2.811055,1.6547 -3.706869,6.55113 -0.241123,1.31796 -0.482431,2.35225 -0.536242,2.29844 -1.151972,-1.15197 -1.03343,-17.96068 0.173835,-24.64904 0.637501,-3.53182 0.696349,-5.96251 0.144354,-5.96251 -0.536792,0 -3.517119,3.36083 -4.738892,5.34392 l -1.027371,1.66754 0.159916,-2.26322 c 0.274949,-3.89124 1.268957,-7.16118 3.677134,-12.09648 1.573657,-3.22503 1.50746,-3.38545 -0.884948,-2.14448 -1.008497,0.52311 -1.833632,0.83059 -1.833632,0.68328 0,-0.4429 1.834,-3.62286 3.345239,-5.80029 1.696657,-2.44458 1.679246,-2.3236 0.334409,-2.3236 -1.082852,0 -1.082852,0 0.159332,-1.38161 0.925631,-1.02952 3.832116,-6.04567 3.834195,-6.61723 1.42e-4,-0.039 -1.213633,-0.0293 -2.697279,0.0216 l -2.697537,0.0925 3.1603,-2.37793 c 8.825736,-6.6408 10.01064,-7.86616 7.595519,-7.85483 -1.385614,0.007 -1.385614,0.007 -0.347012,-1.05833 0.94813,-0.97208 1.005465,-1.10955 0.658193,-1.57818 -0.673363,-0.90866 -1.487389,-3.40444 -1.7311,-5.30749 -0.266269,-2.0792 -1.150456,-3.5831 -4.569563,-7.7723 -1.39532,-1.709589 -1.682022,-2.192719 -1.231251,-2.074849 1.253994,0.32793 1.38106,-0.0665 0.438234,-1.36033 -2.45983,-3.3756 -4.158304,-8.48235 -3.199974,-9.62126 0.560435,-0.66604 0.65267,-1.0431 0.653937,-2.67333 0.0034,-4.38637 1.527421,-6.33545 6.443053,-8.2401 1.657749,-0.64232 2.8707,-1.31002 3.595707,-1.97935 1.504786,-1.38921 3.22109,-1.01354 7.696883,1.68471 3.119087,1.88036 3.37052,1.8467 2.605207,-0.34867 -0.702339,-2.01474 1.308055,-0.69421 6.605592,4.33889 4.135943,3.92949 4.135459,3.92919 4.37224,2.74528 0.16547,-0.82735 0.16547,-0.82735 1.350078,0.26458 1.46835,1.35348 1.126131,1.39238 4.397562,-0.49981 11.7451,-6.79332 31.390735,-7.54498 44.130395,-1.68846 1.07552,0.49443 2.17684,0.89896 2.44739,0.89896 0.27055,0 0.49191,0.10769 0.49191,0.23932 0,0.18757 2.26673,1.6575 3.22792,2.09324 0.10186,0.0462 0.70873,-0.39859 1.34858,-0.98839 1.21451,-1.11949 1.50891,-1.14085 1.50891,-0.10945 0,0.99964 0.35874,0.76844 3.63234,-2.34096 5.82099,-5.52902 8.07896,-7.05131 7.33614,-4.94592 -0.80303,2.27602 -0.56291,2.30522 2.70369,0.32886 4.26858,-2.58259 6.08089,-2.95484 7.71971,-1.58564 0.58797,0.49124 2.20202,1.33215 3.58677,1.8687 4.5129,1.7486 6.22588,3.86193 6.23638,7.69392 0.005,1.85066 0.0948,2.25239 0.7033,3.14784 0.95098,1.3995 -0.32439,5.5341 -2.84702,9.22976 -1.11192,1.62896 -1.07644,2.13964 0.12677,1.82499 0.44762,-0.11706 0.3183,0.14043 -0.6246,1.2436 -3.63146,4.248699 -5.29014,6.966579 -5.29014,8.668279 0,1.23826 -0.79397,3.70101 -1.6285,5.0513 -0.58025,0.93888 -0.58025,0.93888 0.39183,1.71871 1.25862,1.0097 1.22576,1.14937 -0.24288,1.03256 -0.66823,-0.0532 -1.33098,0.0194 -1.47278,0.16119 -0.24496,0.24496 6.05507,5.5033 10.36066,8.64757 0.94589,0.69076 1.77932,1.31754 1.85208,1.39285 0.0728,0.0753 -1.0881,0.0896 -2.57968,0.0318 -1.49159,-0.0578 -2.71198,-0.069 -2.71198,-0.0248 0,0.59994 2.97721,5.73931 3.89014,6.7153 1.20935,1.2929 1.20935,1.2929 0.11481,1.2929 -1.35913,0 -1.37664,-0.12125 0.3355,2.3236 2.824,4.03255 3.8449,6.5876 2.18018,5.45639 -1.04999,-0.71349 -2.49843,-1.30706 -2.69931,-1.10618 -0.0662,0.0662 0.45991,1.35992 1.16918,2.87486 2.31829,4.95169 4.57523,14.26383 3.45705,14.26383 -0.13501,0 -0.24547,-0.1501 -0.24547,-0.33355 0,-0.95772 -4.72646,-6.8102 -5.49991,-6.8102 -0.50326,0 -0.37853,2.12901 0.34879,5.95313 1.26307,6.64101 1.47687,18.68359 0.42276,23.8125 -0.2533,1.23246 -0.34041,1.04378 -0.9162,-1.98438 -0.8976,-4.7206 -3.08525,-7.90151 -3.59957,-5.23389 -0.43809,2.27223 -2.04998,8.6787 -2.22852,8.85724 -0.0797,0.0797 -0.99533,-0.3993 -2.03481,-1.06435 -1.03949,-0.66505 -1.995,-1.245 -2.12336,-1.28878 -0.12836,-0.0438 -0.055,-0.67126 0.16291,-1.39441 0.55335,-1.83593 0.99362,-7.24374 0.80843,-9.92998 -0.28334,-4.10976 1.59755,1.01926 2.11359,5.76361 0.24445,2.24735 0.41267,1.91606 0.95259,-1.876 0.70489,-4.9507 1.33585,-8.38552 1.54039,-8.38552 0.17572,0 1.51199,2.74294 2.09457,4.29948 0.84138,2.248 1.06278,-0.60946 0.43642,-5.63246 -0.54541,-4.37383 -1.86473,-8.32385 -3.51523,-10.52451 -0.91457,-1.21942 -0.63654,-1.27945 0.68533,-0.14798 1.67973,1.43778 1.6227,0.59739 -0.20518,-3.02362 -0.45524,-0.90181 -0.73669,-1.63752 -0.62545,-1.63489 0.29923,0.007 1.74143,1.81555 2.47373,3.10204 0.35141,0.61735 0.71204,1.12336 0.8014,1.12448 0.45829,0.006 0.64579,-4.33989 0.23399,-5.42301 -0.38519,-1.01314 0.69125,-0.20412 3.03698,2.28247 2.93443,3.11065 1.59975,-2.11171 -1.87789,-7.34787 -0.85544,-1.28802 -1.6384,-2.46885 -1.7399,-2.62408 -0.12983,-0.19856 0.32508,-0.20897 1.53429,-0.0351 2.4997,0.35943 2.43647,0.12964 -1.18249,-4.29741 -1.8716,-2.28951 -1.87041,-2.18191 -0.0209,-1.88649 1.89948,0.3034 1.89632,0.35413 0.13895,-2.233 -1.6626,-2.44762 -2.07846,-2.83983 -4.65117,-4.38667 -1.79543,-1.0795 -1.79543,-1.42111 0,-0.50515 1.57978,0.80594 1.58986,0.62691 0.0428,-0.7594 l -1.41245,-1.26566 1.67613,0.19763 c 1.53267,0.18072 2.40266,0.0677 1.62424,-0.21107 -0.50944,-0.18241 -4.68246,-2.72419 -4.97338,-3.02928 -0.18409,-0.19304 0.23852,-0.22116 1.38906,-0.0924 1.13695,0.12724 1.65364,0.0943 1.65364,-0.1055 0,-0.15981 -0.14007,-0.29057 -0.31128,-0.29057 -0.40149,0 -6.87414,-4.3074 -7.36944,-4.90419 -0.35075,-0.42264 -0.26576,-0.44047 1.2569,-0.26375 2.73531,0.31747 2.51953,-0.005 -3.75896,-5.61565 -1.84841,-1.65182 -1.84841,-1.65182 -0.33073,-1.65182 2.09291,0 1.946,-0.20341 -1.44451,-1.99991 -2.96219,-1.56954 -2.96219,-1.56954 -1.75198,-1.74265 1.57035,-0.22463 3.86278,-1.70963 3.37025,-2.18319 -0.20954,-0.20147 -7.25355,-3.018289 -8.37952,-3.350869 -3.33803,-0.98598 5.26337,-5.72901 11.30287,-6.23269 3.3967,-0.28327 2.58241,-0.88485 -1.20638,-0.89125 -2.30973,-0.004 -5.10807,0.60005 -7.84545,1.69323 -1.96209,0.78356 -1.98436,0.80762 2.42822,-2.62288 4.45585,-3.46414 4.9261,-3.75348 7.48687,-4.60661 3.1246,-1.04096 3.0967,-1.04769 1.79347,0.43287 -0.60527,0.68761 -0.99056,1.28685 -0.8562,1.33164 0.3243,0.1081 3.83528,-1.16064 5.41744,-1.95767 0.69122,-0.34821 1.25677,-0.5362 1.25677,-0.41776 0,0.36913 -1.95364,2.10807 -2.57969,2.29618 -1.11556,0.33521 -0.59911,0.57414 0.99219,0.45903 1.95793,-0.14162 2.0179,0.14659 0.26458,1.27169 -1.47505,0.94654 -1.48707,0.96757 -0.91485,1.59987 0.37237,0.41146 0.33809,0.50981 -0.39178,1.12395 -0.94058,0.79145 2.55557,2.01348 3.70563,1.29525 1.04223,-0.65088 0.45413,0.20439 -1.5391,2.23831 -3.68925,3.76456 -3.70943,4.43698 -0.0796,2.65167 3.63812,-1.78937 7.40761,-7.36245 6.16158,-9.10973 -0.75458,-1.05813 -0.90092,-1.82129 -0.73151,-3.81495 0.30582,-3.59891 -2.43205,-6.01026 -8.08739,-7.12288 -1.21863,-0.23975 -1.56259,-0.41289 -1.56259,-0.78655 0,-1.06765 -1.93701,-0.59879 -4.57793,1.10812 -0.84838,0.54833 -2.10017,1.20075 -2.78177,1.44982 -5.09278,1.86104 -4.92517,1.75111 -9.24032,6.06069 -2.21777,2.21491 -4.21316,4.4305 -4.4342,4.92354 -0.45556,1.01613 -0.46938,1.28814 0.14,-2.75513 0.14916,-0.98972 0.20118,-1.91278 0.11561,-2.05124 -0.39232,-0.63478 -3.52482,2.13672 -5.24944,4.64447 -1.09174,1.5875 -1.09174,1.5875 -1.17386,0.59531 -0.0973,-1.17604 -0.10595,-1.17838 -1.21728,-0.33073 -1.10184,0.84042 -1.30069,0.83088 -2.80531,-0.13464 -2.48899,-1.59718 -16.66509,-3.41073 -16.66509,-2.13197 0,1.41912 7.59933,3.7841 12.30313,3.82885 2.72871,0.026 2.97649,0.0736 3.96875,0.76225 0.58208,0.404 1.71318,0.93407 2.51354,1.17792 1.45521,0.44336 1.45521,0.44336 0.52917,0.59168 -1.06567,0.17067 -0.64859,0.60563 1.38906,1.44858 3.04075,1.25793 3.0572,1.26881 2.1853,1.44528 -0.77753,0.15736 -0.75039,0.18964 1.56472,1.86095 4.26672,3.080189 10.28461,8.425959 10.08142,8.955459 -0.0731,0.1905 0.91128,1.62027 2.18752,3.17726 1.27623,1.55699 2.94415,3.61197 3.70647,4.56663 1.54972,1.94072 3.33294,3.40678 5.09329,4.18741 1.17659,0.52176 1.17659,0.52176 0.3167,0.54045 -1.28767,0.028 -1.05714,0.4249 1.02011,1.75638 1.03401,0.66278 1.83391,1.25116 1.77757,1.30751 -0.0803,0.0803 -2.5982,-0.20419 -4.31904,-0.48802 -0.8579,-0.1415 0.10051,1.68772 2.35629,4.49722 0.67313,0.83836 0.92991,1.46687 1.07556,2.63261 0.14762,1.18148 0.39703,1.78237 1.09172,2.63014 1.10224,1.34514 1.11642,1.48896 0.11226,1.13891 -0.43347,-0.15111 -0.91234,-0.23333 -1.06416,-0.18273 -0.37023,0.12341 1.59256,4.14073 3.02252,6.1863 1.14016,1.63102 1.14016,1.63102 0.18463,1.86747 -2.02623,0.50139 -4.97945,14.57809 -4.45443,21.23232 0.13266,1.68129 0.13266,1.68129 -0.60229,0.57114 -0.40422,-0.61058 -0.81119,-0.98679 -0.90437,-0.83602 -0.42965,0.69519 -1.05814,2.86914 -1.87258,6.47725 -0.48727,2.1587 -0.94617,3.98513 -1.01978,4.05874 -0.16966,0.16967 -5.20138,-1.50432 -5.20148,-1.73046 -4e-5,-0.0923 -1.96409,-0.16778 -4.36456,-0.16778 -4.36448,0 -4.36448,0 -4.37079,-1.19062 -0.016,-3.02809 -1.03813,-6.80856 -2.14764,-7.94366 -2.19427,-2.24489 -4.7485,-6.06024 -3.07267,-4.58976 0.32685,0.2868 1.08496,0.84846 1.68468,1.24814 2.1751,1.44957 4.00028,3.50194 4.61598,5.19057 0.79404,2.17772 1.04049,1.79943 1.04049,-1.59711 0,-2.89808 0,-2.89808 -2.54561,-5.3422 -2.73336,-2.62438 -4.34353,-4.69329 -5.8243,-7.48364 -1.17289,-2.21018 -1.0412,-2.34431 0.57629,-0.58694 6.28855,6.83233 6.41523,6.93139 7.85924,6.14546 0.99661,-0.54242 1.86455,-0.77021 3.38644,-0.88875 3.23671,-0.25212 4.31892,-1.70255 4.13874,-5.54691 -0.14475,-3.08842 0.0209,-3.93847 0.9923,-5.09294 0.83851,-0.99652 0.84842,-1.75669 0.0533,-4.09144 -1.00696,-2.95697 -2.47457,-5.66874 -3.06791,-5.66874 -0.79618,0 -0.84006,0.34999 -0.25322,2.01948 1.13393,3.22592 1.20908,4.441 0.39807,6.43691 -0.37534,0.92372 -0.82628,2.37587 -1.00207,3.227 -0.31964,1.5475 -0.31964,1.5475 -1.78788,2.08157 -2.79741,1.01755 -3.50209,1.42234 -4.49186,2.58028 -0.99447,1.16343 -0.99447,1.16343 -2.62344,-0.19222 -1.58219,-1.31671 -2.11768,-2.1154 -1.16596,-1.73903 1.39378,0.55119 2.1605,0.46732 3.42784,-0.37496 0.69769,-0.46368 1.77453,-0.97935 2.393,-1.14592 1.12448,-0.30286 1.12448,-0.30286 1.12448,-2.06369 0,-1.56187 0.0905,-1.87477 0.80142,-2.76928 0.68283,-0.85923 0.7929,-1.2072 0.74386,-2.35149 -0.0317,-0.73866 0.0336,-2.25484 0.14492,-3.36927 0.22762,-2.27786 0.32468,-2.15592 -1.9734,-2.47952 -1.6177,-0.22779 -2.57201,0.57419 -3.95402,3.32286 -1.5542,3.09116 -3.63496,4.4902 -6.67818,4.4902 -2.18574,0 -3.66698,2.22045 -3.25784,4.88367 0.29185,1.89972 1.51074,5.80082 2.17353,6.95643 0.35471,0.61846 0.52471,1.12448 0.37776,1.12448 -0.38347,0 -2.21649,-2.52616 -3.07,-4.23089 -0.89199,-1.78159 -1.29357,-1.24481 -1.12679,1.50614 0.15558,2.56617 -1.19664,0.56908 -1.94766,-2.8765 -0.38382,-1.76093 -0.98655,-0.82349 -1.00709,1.56635 -0.0199,2.32303 -1.15933,0.94655 -2.36885,-2.86179 -0.25726,-0.81 -0.96329,-2.20245 -1.56895,-3.09434 -1.31335,-1.93399 -1.32605,-2.00665 -0.31176,-1.78387 0.78945,0.17339 0.78945,0.17339 0.1003,-1.63263 -0.86554,-2.26828 -0.85312,-2.0773 -0.24217,-3.72424 0.62693,-1.69002 0.82065,-1.73447 1.02611,-0.23545 0.59007,4.30504 2.81228,6.84422 3.61839,4.13451 2.17915,-7.32511 5.05083,-9.52743 12.74026,-9.77061 7.79599,-0.24656 9.31126,-4.15446 5.47155,-14.11117 -0.62224,-1.61352 -0.72895,-2.14696 -0.48764,-2.43771 0.24513,-0.29536 -0.17336,-1.35865 -2.02711,-5.15039 -1.28481,-2.62801 -2.24956,-4.77736 -2.1439,-4.77634 0.33962,0.003 4.53652,4.32402 5.81907,5.9908 4.16811,5.41677 4.86446,7.73552 3.8199,12.71975 -0.38561,1.83994 -0.0209,3.60756 1.12789,5.46632 0.53106,0.85928 0.54708,0.99898 0.1922,1.6763 -0.37361,0.71304 -0.34814,0.7852 0.72754,2.06202 2.3306,2.76636 3.81651,6.07978 3.23864,7.22179 -0.51593,1.01958 -0.68992,2.07875 -1.46404,8.91238 -0.68873,6.0798 -0.68873,6.0798 -1.48248,6.31729 -3.24898,0.97211 -6.47881,3.7404 -6.48754,5.56047 -0.009,1.92471 -0.51242,4.6817 -1.2653,6.93261 -0.73239,2.18967 -0.73239,2.18967 -0.0616,2.32257 1.02259,0.20262 4.59866,-2.67396 5.85739,-4.71167 0.48322,-0.78225 0.48322,-0.78225 0.92798,0.26459 0.65063,1.5314 1.67323,-0.61767 1.70508,-3.58337 0.0176,-1.63985 0.0717,-1.87972 0.31175,-1.3816 0.56235,1.16711 1.45487,-0.36531 1.50681,-2.58715 0.0216,-0.92604 0.0216,-0.92604 0.66308,-0.13229 0.64143,0.79375 0.64143,0.79375 1.03539,-0.13819 1.22097,-2.88825 2.09226,-14.0327 0.99245,-12.69411 -0.8625,1.04976 -0.75275,-0.8071 0.13748,-2.32617 0.80161,-1.36784 0.74836,-2.86286 -0.16435,-4.61393 -0.55657,-1.06779 -0.4561,-1.11467 1.25757,-0.58673 0.59377,0.18293 -0.58585,-2.21961 -2.39732,-4.88262 -0.97233,-1.4294 -0.57414,-1.97284 1.33899,-1.82742 0.61846,0.047 1.12448,0.0363 1.12448,-0.0238 0,-0.26121 -1.56291,-2.15472 -3.18881,-3.86334 -1.40971,-1.48142 -1.82652,-2.11684 -2.08266,-3.175 -0.17613,-0.7276 -0.60992,-1.84393 -0.96397,-2.48072 -0.76262,-1.37164 -0.76522,-1.38575 -0.21632,-1.17512 1.32383,0.508 -2.52564,-6.46424 -5.7238,-10.36707 -2.02389,-2.46984 -6.31085,-6.58211 -8.55846,-8.20972 -0.99897,-0.72341 -2.42007,-1.82084 -3.15799,-2.438749 -3.88758,-3.25527 -6.92579,-5.09416 -8.41959,-5.096 -0.78253,-9.6e-4 -2.792,-0.24081 -4.46549,-0.53299 -5.14968,-0.89912 -8.2057,-0.64502 -8.66073,0.72009 -0.36716,1.10147 10.70309,3.57652 13.77046,3.07875 1.17331,-0.1904 2.17264,0.39013 4.03345,2.343119 1.73269,1.81853 4.00633,4.55817 3.66915,4.42117 -0.14418,-0.0586 -1.38929,-0.66423 -2.76692,-1.34589 -4.73116,-2.34101 -11.07986,-3.690349 -15.45153,-3.284039 -3.25282,0.302309 -3.70384,1.131719 -2.267,4.168939 0.49554,1.04748 0.78606,2.07483 0.77362,2.73573 -0.0199,1.05833 -0.0199,1.05833 -0.37654,0.13229 -0.35661,-0.92604 -0.35661,-0.92604 -0.37674,-0.10182 -0.0368,1.50497 1.85405,2.93976 6.06528,4.6025 1.14102,0.45051 8.92902,1.81782 10.50346,1.84404 0.62234,0.0104 3.43133,2.60923 4.91775,4.54989 2.941,3.83972 1.68954,9.23442 -2.68534,11.57578 -0.57519,0.30784 -0.57208,0.28443 0.10494,-0.78804 3.13632,-4.96825 1.36194,-9.42154 -4.52196,-11.34914 -3.19262,-1.04592 -4.92002,-1.94193 -7.5251,-3.90334 -3.4823,-2.62187 -3.82663,-2.67794 -2.68634,-0.43737 0.79319,1.55856 1.63984,2.47689 4.22264,4.58014 2.40734,1.96037 3.34744,4.30259 2.4405,6.08034 -0.52112,1.02148 -0.52112,1.02148 0.29591,4.60913 0.80876,3.5513 0.83498,4.36073 0.17056,5.26522 -0.29266,0.39839 -0.34532,0.20677 -0.3636,-1.32292 -0.0333,-2.78988 -0.26418,-3.5145 -1.571,-4.93134 -0.83061,-0.90054 -1.24054,-1.60479 -1.3566,-2.33062 -0.24932,-1.55913 -0.73041,-1.90154 -4.19477,-2.98555 -1.74625,-0.54641 -3.50243,-1.16174 -3.90261,-1.3674 -2.87262,-1.47626 2.38307,4.1249 5.53472,5.89854 1.80747,1.01717 1.80747,1.01717 0.35226,1.10142 -4.05899,0.23499 -5.57231,-0.91443 -6.74004,-5.11929 -0.90597,-3.26227 -1.36143,-3.7531 -1.81474,-1.95569 -1.50916,5.98394 -2.58998,7.11794 -6.787515,7.12155 l -1.71626,0.001 1.45168,-0.96202 c 2.839685,-1.88185 4.254145,-3.09879 5.448615,-4.68779 1.28308,-1.70688 1.22443,-2.08111 -0.20869,-1.33152 -1.15191,0.6025 -6.329515,2.23292 -6.586515,2.07409 -0.10989,-0.0679 -0.33158,0.49094 -0.49264,1.24192 -0.3565,1.6623 -1.26271,3.34076 -1.91557,3.54797 -0.26514,0.0841 -0.267061,0.31984 -0.267061,0.52375 0,0.21611 -0.16091,0.43799 -0.3858,0.35169 -0.26452,-0.1015 -0.308741,0.1957 -0.57254,0.62512 -0.221563,0.36067 -0.209971,0.96785 -0.343461,1.38975 -0.13349,0.42189 -0.1567,1.23782 -0.1567,1.68177 0,0.54819 -0.430498,0.59167 -0.613628,0.40855 -0.18312,-0.18311 0.0196,-1.47882 0.63169,-4.03823 0.90133,-3.76862 0.90133,-3.76862 0.36415,-5.04007 -0.69795,-1.652 0.15514,-3.60688 2.41969,-5.54479 3.48288,-2.98051 3.92354,-3.46711 4.49709,-4.96588 0.75062,-1.96148 0.67163,-1.97643 -1.67412,-0.31681 -3.82174,2.7039 -5.40827,3.57262 -8.386237,4.59198 -6.565385,2.24732 -8.341568,6.69638 -4.709657,11.79693 0.901269,1.26571 0.117201,0.87743 -1.744067,-0.8637 -4.356487,-4.07528 -3.596749,-8.76395 2.211997,-13.65118 1.302095,-1.09553 1.43395,-1.14206 4.331761,-1.52863 6.344523,-0.84637 7.512093,-1.13212 10.280663,-2.51606 1.842765,-0.92115 1.956275,-1.06406 2.492945,-3.13861 0.24169,-0.93425 0.78812,-2.38937 1.21428,-3.2336 1.68538,-3.33872 1.01213,-4.075419 -3.687015,-4.034429 -5.49381,0.0479 -10.313995,1.204529 -14.838112,3.560409 -2.499347,1.3015 -2.501963,1.35127 0.08478,-1.61274 3.188213,-3.653209 3.765319,-3.992939 6.963702,-4.099399 5.50784,-0.18335 13.070025,-2.03646 12.710595,-3.11474 -0.47393,-1.42177 -3.60542,-1.67533 -9.087445,-0.73582 -1.76241,0.30204 -3.74552,0.54917 -4.40691,0.54917 -1.105289,0 -1.505167,0.21927 -4.94578,2.71198 -2.058795,1.49158 -4.502232,3.247759 -5.429859,3.902599 -6.184764,4.36604 -10.874993,9.66378 -14.271082,16.1196 -1.559427,2.9644 -1.638559,3.19498 -1.096459,3.19498 0.565203,0 0.551272,0.0657 -0.426977,2.01216 -0.556184,1.10668 -1.011244,2.18887 -1.011244,2.40487 0,0.21599 -0.982266,1.44586 -2.182812,2.73303 -3.07358,3.29536 -3.5076,4.07633 -2.136674,3.84471 2.217663,-0.37467 2.632994,0.16702 1.457882,1.90145 -2.693954,3.97618 -3.050786,4.97195 -1.636313,4.56629 1.160528,-0.33284 1.199946,-0.25651 0.537793,1.04142 -0.763993,1.49755 -0.766585,3.18579 -0.0065,4.25319 0.830344,1.16611 1.130558,3.62591 0.32256,2.64289 -0.983544,-1.1966 -1.002339,5.31464 -0.02743,9.50472 0.819935,3.52402 1.010869,3.83765 1.84805,3.03558 0.765147,-0.73306 0.765147,-0.73306 0.765147,0.12532 0,2.28075 0.70303,3.64728 1.36414,2.6516 0.335147,-0.50476 0.372581,-0.37272 0.393817,1.38906 0.03663,3.03879 0.960165,5.01212 1.643656,3.51202 0.317796,-0.69749 0.317796,-0.69749 1.064741,0.32387 2.436512,3.33166 6.816781,5.72381 6.016936,3.28596 -0.68057,-2.0743 -1.240149,-4.66964 -1.497287,-6.94442 -0.404843,-3.58147 -2.519732,-5.9378 -6.141732,-6.8429 -0.691224,-0.17273 -1.256771,-0.36455 -1.256771,-0.42627 0,-2.83406 -1.568919,-13.88273 -2.1167,-14.90627 -0.579499,-1.08281 1.072231,-5.03447 3.089299,-7.39095 0.744296,-0.86955 0.889769,-1.22026 0.756964,-1.82492 -0.120643,-0.54928 0.08505,-1.26903 0.77281,-2.70414 1.057964,-2.2076 1.11085,-2.79412 0.512731,-5.68631 -0.942259,-4.55628 -0.378909,-6.05936 4.575978,-12.20917 1.77991,-2.20916 5.881319,-6.20083 5.615963,-5.4657 -0.06059,0.16786 -1.181733,2.40445 -2.49142,4.97019 -2.244162,4.39642 -2.353414,4.68604 -1.897725,5.03062 0.446775,0.33785 0.451808,0.41404 0.06622,1.00253 -2.169974,3.3118 -3.203508,12.28758 -1.608075,13.96541 1.389754,1.46153 1.855959,1.58125 6.157437,1.58125 7.503174,0 10.765736,2.49859 12.869246,9.85573 0.66285,2.31837 2.76285,-0.0386 3.6278,-4.0717 0.29728,-1.38617 0.29728,-1.38617 0.80122,-0.0794 0.57873,1.50075 0.40262,2.72633 -0.71055,4.94482 -0.34683,0.69122 -0.59428,1.25677 -0.54988,1.25677 0.0444,0 0.46362,-0.19102 0.93161,-0.42448 1.26754,-0.63233 1.23958,-0.36169 -0.18864,1.82613 -0.75132,1.15091 -1.37249,2.44707 -1.47252,3.07262 -0.0952,0.59509 -0.2977,1.08198 -0.45009,1.08198 -0.15239,0 -0.20857,0.11084 -0.12485,0.2463 0.0837,0.13547 0.0293,0.32229 -0.12099,0.41516 -0.15027,0.0929 -0.20515,0.27899 -0.12196,0.4136 0.0832,0.13461 -0.15299,0.64363 -0.52485,1.13117 -0.37186,0.48753 -0.67611,1.01699 -0.67611,1.17657 0,0.15957 -0.10091,0.3525 -0.22425,0.42873 -0.12333,0.0762 -0.17163,-0.72042 -0.10732,-1.77032 0.19373,-3.16294 -0.38672,-4.05748 -1.016481,-1.56651 -0.891012,3.52434 -1.824574,4.46269 -1.830998,1.8404 -0.0059,-2.4223 -0.269497,-2.54177 -1.285274,-0.58261 -1.106208,2.13358 -3.337324,4.72066 -2.384926,2.76543 1.902102,-3.90493 2.48861,-8.81829 1.288254,-10.79212 -0.5401,-0.88813 -0.858713,-1.0083 -3.20007,-1.20697 -2.957305,-0.25094 -4.963953,-1.82981 -6.100604,-4.80006 -1.361212,-3.55707 -6.695067,-4.33666 -5.817175,-0.85024 0.168261,0.66823 0.30593,2.11577 0.30593,3.21676 0,1.80433 0.0783,2.10988 0.79375,3.09753 0.683571,0.94364 0.79375,1.32895 0.79375,2.77584 0,1.56519 0.04071,1.68026 0.595312,1.68257 0.615745,0.003 3.207644,1.36729 3.502323,1.84409 0.226156,0.36593 1.383091,0.3211 2.559746,-0.0992 1.277386,-0.45626 1.095165,-0.11958 -0.898268,1.6597 l -1.593943,1.42271 -1.294614,-1.32899 c -1.05535,-1.08338 -1.688188,-1.466 -3.424181,-2.07032 -2.262248,-0.78751 -2.444104,-0.96141 -2.741121,-2.62111 -0.104169,-0.58208 -0.549166,-1.92513 -0.988882,-2.98454 -0.912741,-2.19909 -0.901697,-2.54571 0.189415,-5.94502 0.791761,-2.4667 0.79185,-2.48087 0.01634,-2.6208 -1.541665,-0.27817 -4.554773,8.59029 -3.303372,9.7228 1.177734,1.06583 1.36193,1.83333 1.16467,4.85294 -0.254928,3.90237 1.002189,5.68696 4.151486,5.89341 1.402628,0.092 2.324023,0.32588 3.359054,0.85279 1.552611,0.7904 2.735199,-0.0886 7.509553,-5.58171 1.899128,-2.18504 1.986035,-2.21778 1.222199,-0.46044 -1.100758,2.53248 -3.371605,5.58091 -5.983274,8.03204 -2.562895,2.40537 -2.562895,2.40537 -2.653969,4.0532 -0.09912,1.79348 0.288695,5.06777 0.524227,4.42596 0.0801,-0.21828 0.351892,-0.99219 0.603972,-1.71979 0.524608,-1.51423 2.823493,-3.92473 5.433107,-5.69688 2.03939,-1.38493 1.994332,-1.23295 -0.572331,1.93041 -2.733894,3.36948 -3.33883,4.68021 -3.615508,7.83382 -0.336451,3.83491 0.598351,3.50783 1.938868,-0.67841 0.901807,-2.8162 1.755655,-4.15134 4.155482,-6.4978 2.341174,-2.2891 2.613169,-2.25571 1.07753,0.1323 -3.77865,5.87601 -4.303742,8.1207 -2.303588,9.84751 3.638695,3.14142 4.995675,4.0537 5.223692,3.51183 0.09821,-0.23339 0.223455,-0.194 0.432216,0.13592 0.853251,1.34849 1.570431,1.83012 3.837813,2.57735 2.27772,0.75064 2.32073,0.77881 0.98933,0.64788 -3.022944,-0.29726 -7.888149,-2.30014 -10.60885,-4.36739 -0.802543,-0.60979 -1.585645,-1.01246 -1.805177,-0.92821 -0.213253,0.0818 -1.004154,-0.11869 -1.757558,-0.44561 -2.552447,-1.10755 -8.423308,-0.84575 -12.873829,0.57409 -3.018158,0.96288 -2.686296,1.28197 -3.691764,-3.54973 -1.435618,-6.89875 -1.521097,-7.04273 -2.928189,-4.93225 -0.362574,0.54382 -0.397801,0.27961 -0.407594,-3.05708 -0.0059,-2.00878 -0.162579,-4.7239 -0.348185,-6.03359 -1.518025,-10.7116 -2.108446,-12.74955 -3.833884,-13.23336 -0.895261,-0.25103 -0.966801,-0.32771 -0.594257,-0.63689 0.982826,-0.81567 4.134092,-6.97923 3.759711,-7.35361 -0.07495,-0.075 -0.518851,-0.003 -0.986439,0.16009 -1.188066,0.41416 -1.211143,0.23261 -0.123462,-0.97133 0.520636,-0.57628 0.94661,-1.23585 0.94661,-1.46571 0,-1.58378 0.654482,-3.1932 1.87747,-4.61687 1.305704,-1.51995 2.543212,-3.66546 2.271137,-3.93753 -0.599857,-0.59986 -5.239344,0.88178 -7.05694,2.25366 -0.508177,0.38356 -1.345402,0.88829 -1.860501,1.12163 -0.854695,0.38716 -2.91405,2.78606 -4.383704,5.10649 -0.486564,0.76824 -0.486564,0.76824 1.205775,0.57677 1.380867,-0.15623 1.643484,-0.12718 1.426893,0.15781 -0.145996,0.1921 -0.97763,1.24224 -1.848076,2.33365 -2.754843,3.45415 -3.352226,4.52959 -2.281533,4.10734 0.477408,-0.18827 3.067593,-0.65204 3.161772,-0.56611 0.02911,0.0266 -0.487046,0.81822 -1.147003,1.75925 -1.983403,2.82814 -3.743387,6.70283 -4.412632,9.71462 -0.190716,0.85827 -0.05224,0.77129 1.581606,-0.99346 1.94947,-2.10566 3.758363,-3.56753 3.25408,-2.6298 -0.382383,0.71105 -0.416543,4.0004 -0.05179,4.98643 0.205815,0.55637 0.293411,0.48625 1.17845,-0.9433 1.279807,-2.0672 3.016723,-3.76169 1.989825,-1.94122 -1.919947,3.40365 -2.131948,5.32803 -0.42611,3.8679 1.388772,-1.18874 1.784151,-1.23006 0.933703,-0.0976 -2.405016,3.20256 -4.143676,9.67501 -4.143676,15.42553 0,1.69418 0.334761,2.25203 0.666655,1.11093 0.460352,-1.58277 2.087886,-4.70091 2.277149,-4.36272 0.111012,0.19837 0.588424,2.88336 1.060916,5.96664 0.98887,6.45296 1.02937,6.52589 1.607048,2.89399 1.016312,-6.38961 1.643835,-6.95175 1.846004,-1.65364 0.157767,4.13452 0.477866,6.49199 1.095719,8.06979 0.110594,0.28242 -0.451701,0.77839 -1.949801,1.71979 -1.777784,1.11716 -2.478967,1.71979 -2.001037,1.71979 0.05761,0 1.256541,-0.72392 2.664303,-1.60872 3.072324,-1.93099 3.016377,-1.94432 3.843696,0.91585 0.753347,2.60443 0.892654,2.70625 1.581507,1.1559 0.274796,-0.61847 0.508039,-0.93274 0.518318,-0.69838 0.01028,0.23435 0.316345,0.86472 0.680147,1.40081 0.363803,0.53609 0.661459,1.01981 0.661459,1.07493 0,0.0551 -0.863203,0.67101 -1.918229,1.36863 -1.055026,0.69763 -3.108855,2.42179 -4.564063,3.83147 l -2.645833,2.56305 z m 76.943261,-51.03927 c 2.15504,-1.08869 3.14317,-4.00864 1.93855,-5.72847 -0.79503,-1.13507 -4.85692,-0.40184 -4.85692,0.87674 0,0.92679 0.65187,1.3633 1.4755,0.98803 0.88815,-0.40467 0.90575,-0.39851 0.90575,0.31696 0,0.97405 -0.84412,1.50774 -2.85733,1.80655 -1.24804,0.18523 -1.83381,0.386 -1.79992,0.6169 0.22836,1.55591 3.10614,2.17823 5.19437,1.12329 z m -44.979831,-0.10486 c 1.485109,-0.98885 1.454172,-1.23759 -0.20069,-1.61363 -2.609879,-0.59306 -2.840026,-0.6603 -3.180022,-0.9291 -0.181901,-0.14381 -0.330729,-0.66361 -0.330729,-1.15512 0,-0.89364 0,-0.89364 0.529166,-0.36448 0.913592,0.91359 1.986198,0.41602 1.806248,-0.8379 -0.152975,-1.06595 -4.229611,-1.78756 -4.981368,-0.88174 -2.467956,2.9737 3.044899,7.98758 6.357395,5.78197 z M 52.494951,125.34702 c 0.860045,-0.35935 4.678094,-2.6425 5.957653,-3.5626 0.75765,-0.54482 0.761128,-1.02192 0.0083,-1.14066 -0.478517,-0.0755 -0.279194,-0.25731 1.015962,-0.92686 2.402364,-1.24193 10.460263,-10.29435 10.069598,-11.31241 -0.249797,-0.65096 8.638362,-8.27915 11.999335,-10.298329 0.926042,-0.55634 0.926042,-0.55634 -0.132291,-0.71066 -1.058334,-0.15432 -1.058334,-0.15432 -0.264584,-0.46968 3.973493,-1.57864 5.183447,-2.41871 3.483681,-2.41871 -1.110978,0 -0.747303,-0.24111 0.963553,-0.63881 0.821961,-0.19107 2.015736,-0.7433 2.738339,-1.26673 1.109507,-0.80368 1.387407,-0.89592 2.074848,-0.68865 3.19827,0.96433 15.813095,-2.73835 13.851315,-4.06561 -1.37167,-0.92802 -14.196751,1.06144 -16.699862,2.59053 -1.525626,0.93197 -1.525626,0.93197 -2.551616,0.11937 -1.292118,-1.02338 -1.346716,-1.01747 -1.346716,0.14584 0,1.11358 -0.50135,0.90363 -1.236374,-0.51775 -0.781623,-1.51149 -4.373111,-4.93861 -5.175472,-4.93861 -0.147859,0 -0.193439,1.56676 -0.113534,3.9026 0.07343,2.14644 0.05363,3.17651 -0.044,2.28905 -0.205662,-1.8696 -0.05363,-1.64535 -3.985413,-5.8784 -3.40467,-3.66554 -4.392736,-4.42891 -7.040002,-5.43906 -1.803063,-0.68802 -4.541587,-1.98627 -6.546456,-3.10347 -1.450891,-0.80851 -3.110263,-0.98889 -3.112702,-0.33837 -0.0015,0.39791 -0.380596,0.58921 -1.888349,0.95291 -5.777822,1.39371 -8.012995,3.45098 -7.736001,7.12027 0.156801,2.07711 0.117623,2.38984 -0.405423,3.23615 -1.633972,2.64382 1.353724,7.24286 6.39753,9.84788 2.87046,1.48254 2.625641,0.48318 -0.746229,-3.04611 -2.031626,-2.12648 -2.36989,-2.63251 -1.419876,-2.12408 0.53849,0.28819 4.212715,-0.1496 4.212715,-0.50195 0,-0.0779 -0.327422,-0.48437 -0.727604,-0.90332 -0.718203,-0.7519 -0.720767,-0.76684 -0.198438,-1.15612 0.601543,-0.44832 0.336407,-0.77119 -1.426233,-1.73682 -1.285046,-0.70399 -1.007041,-1.00171 0.963212,-1.0315 1.692808,-0.0256 1.738299,-0.0422 0.872376,-0.31825 -0.502459,-0.16018 -1.375584,-0.75326 -1.940278,-1.31796 -1.103132,-1.10313 -1.166615,-1.55332 -0.122574,-0.86924 0.352755,0.23114 1.643007,0.76371 2.867227,1.1835 1.224219,0.41979 2.434213,0.84824 2.688874,0.95212 0.684405,0.27917 0.564738,-0.19616 -0.334145,-1.32725 -1.502359,-1.89048 3.278888,-0.4594 6.245255,1.86926 1.005374,0.78924 3.038752,2.35904 4.518617,3.48844 3.102145,2.3675 3.132448,2.41985 0.868048,1.49974 -2.711426,-1.10175 -5.433944,-1.6941 -7.768223,-1.69016 -3.661419,0.006 -4.621245,0.60191 -1.412885,0.87692 4.181454,0.35842 8.415962,1.95643 11.404563,4.30382 1.764774,1.38613 1.753962,1.418 -0.755084,2.2251 -2.463079,0.79231 -7.540625,2.937869 -7.540625,3.186339 0,0.61685 1.945682,1.83382 3.197356,1.99986 1.348035,0.17882 1.348035,0.17882 -1.586119,1.77228 -3.375641,1.83322 -3.582701,2.14675 -1.309123,1.98229 1.62503,-0.11754 1.62503,-0.11754 0.992187,0.37852 -1.713019,1.34276 -7.348847,6.65508 -7.242652,6.8269 0.06677,0.10803 0.926442,0.14361 1.910392,0.0791 2.163931,-0.14195 1.759407,0.34597 -2.743384,3.30889 -1.474165,0.97003 -2.902915,1.91424 -3.174999,2.09825 -0.414118,0.28006 -0.214561,0.31002 1.225092,0.18392 2.082876,-0.18244 1.845657,0.10328 -1.785937,2.15108 -2.885976,1.62735 -2.895607,1.61784 0.992187,0.98001 0.926042,-0.15192 0.926042,-0.15192 -0.595312,1.10822 -1.926123,1.59542 -1.979006,1.73469 -0.409718,1.079 z m 61.214429,-4.54153 c -0.0894,-0.35599 -0.37213,-0.85693 -0.62839,-1.1132 -0.25627,-0.25627 -0.7308,-0.89448 -1.05451,-1.41826 -0.32371,-0.52377 -1.27186,-1.40875 -2.10701,-1.96661 -0.83515,-0.55787 -2.031,-1.41822 -2.65744,-1.9119 -2.46426,-1.94202 -0.54358,1.50054 2.52634,4.52812 3.35178,3.30554 4.40523,3.81114 3.92101,1.88185 z m -16.201883,0.49068 c 2.004686,-1.1101 3.501243,-2.26931 6.087603,-5.88345 1.38624,-1.93711 1.25211,-2.01946 -0.9488,-0.51675 -1.05503,0.72034 -2.14538,1.45792 -2.42301,1.63907 -0.922085,0.60164 -2.273345,1.83593 -2.273345,2.07656 0,0.13045 -0.259,0.49618 -0.57557,0.81275 -0.55714,0.55714 -0.55926,0.5813 -0.0661,0.7546 0.47819,0.16805 0.47293,0.19063 -0.0859,0.3683 -0.58163,0.18492 -0.77716,0.67731 -0.41341,1.04106 0.25078,0.25078 0.393007,-0.12296 0.698532,-0.29214 z M 58.130189,111.02921 c 2.101247,-2.13925 2.137194,-2.20355 1.217204,-2.1774 -1.149637,0.0327 -1.204139,-0.10823 -0.584032,-1.51009 0.545096,-1.23228 0.545096,-1.23228 -0.308621,-1.04154 -0.469544,0.10491 -1.508561,0.26323 -2.308926,0.35182 -1.771432,0.19609 -1.970458,1.55956 -0.655391,4.48992 0.821992,1.83165 0.725924,1.83575 2.639766,-0.11271 z m 96.759661,0.36759 c 1.37018,-2.64027 1.26276,-4.71558 -0.2446,-4.72533 -0.55027,-0.004 -1.52222,-0.12675 -2.15989,-0.27376 -1.45633,-0.33575 -1.51102,-0.27078 -0.85477,1.01558 0.61058,1.19684 0.53012,1.38132 -0.60252,1.38132 -0.80379,0 -0.79752,0.0113 1.03096,1.85386 2.04117,2.05694 2.13838,2.08264 2.83082,0.74833 z m -52.26364,-2.80063 c 0.63596,-0.79813 0.908,-1.71768 0.73763,-2.49336 -0.21808,-0.99292 -0.65136,-0.95669 -0.65136,0.0545 0,0.44124 -0.1786,1.22968 -0.39688,1.7521 -0.55081,1.31829 -0.42111,1.60509 0.31061,0.6868 z m 57.54452,-9.565089 c 1.60976,-2.44894 1.53452,-2.50965 -0.99494,-0.80279 -2.05263,1.3851 -2.05263,1.3851 -1.30166,2.031059 0.78615,0.67622 0.77786,0.70167 -0.45906,1.40968 -0.25466,0.14576 -0.46302,0.44232 -0.46302,0.65901 0,0.68385 1.84271,-1.20367 3.21868,-3.296959 z M 52.970814,102.31232 c 0,-0.0728 -0.05953,-0.1323 -0.132291,-0.1323 -0.07276,0 -0.132292,0.0595 -0.132292,0.1323 0,0.0728 0.05953,0.13229 0.132292,0.13229 0.07276,0 0.132291,-0.0595 0.132291,-0.13229 z M 157.21664,100.7964 c 0,-0.16892 -0.13184,-0.15926 -0.35508,0.026 -0.19529,0.16208 -0.4525,0.20642 -0.57158,0.0985 -0.11908,-0.10787 -0.13408,-0.0525 -0.0333,0.12304 0.20655,0.35989 0.95999,0.16557 0.95999,-0.24759 z M 52.970814,99.573631 c 0,-0.1076 -0.892968,-0.81644 -1.984374,-1.57519 -2.354558,-1.63689 -2.378804,-1.59351 -0.632555,1.13195 1.272234,1.985629 2.616929,2.213389 2.616929,0.44324 z m 104.157626,0.577919 c -0.097,-0.097 -0.25576,-0.097 -0.35278,0 -0.097,0.097 -0.0176,0.17639 0.17639,0.17639 0.19403,0 0.27341,-0.0794 0.17639,-0.17639 z M 101.78643,85.082661 c 3.3745,-0.9948 3.61049,-1.012 5.47246,-0.39871 2.68347,0.88386 4.78931,1.29598 10.27274,2.01041 5.10213,0.66474 7.89741,1.09763 8.7949,1.36201 0.25466,0.075 0.46302,0.0117 0.46302,-0.14064 0,-0.80204 -5.81689,-2.72495 -10.84791,-3.58603 -4.29226,-0.73464 -4.08174,-1.07162 0.66146,-1.05881 3.49377,0.009 5.8369,0.41895 10.02678,1.75235 2.57433,0.81926 3.26599,0.82637 3.52935,0.0363 0.2362,-0.70861 -8.78969,-3.94668 -12.89468,-4.62602 -2.30392,-0.38127 -10.0801,-0.40107 -11.24479,-0.0286 -0.51719,0.16539 -1.16249,0.15948 -1.85208,-0.017 -1.68445,-0.431 -8.906005,-0.30847 -11.763605,0.1996 -4.069622,0.72356 -12.181177,3.81162 -12.181177,4.63735 0,0.49177 1.222517,0.60004 2.193623,0.19429 2.788729,-1.16521 8.396554,-2.29028 11.395504,-2.28622 3.90567,0.005 5.51684,0.56601 2.6166,0.91065 -5.10736,0.60691 -12.766144,2.88938 -12.766144,3.80457 0,0.36097 15.585734,-2.01723 18.123949,-2.7655 z m 52.82799,104.907489 c -1.50398,-1.43958 -3.55672,-3.10589 -4.56163,-3.7029 -1.82713,-1.08548 -1.82713,-1.08548 -1.30213,-1.82278 0.28875,-0.40551 0.63353,-1.01767 0.76616,-1.36035 0.23384,-0.60416 0.2542,-0.59264 0.6712,0.3798 0.56577,1.31937 0.69319,1.18778 1.60125,-1.65364 0.606,-1.89623 0.85697,-2.37515 1.18028,-2.25233 0.67795,0.25756 5.57042,3.36922 5.5648,3.53928 -0.003,0.0867 -0.1773,1.11009 -0.38765,2.27426 -0.21034,1.16416 -0.38841,3.12869 -0.39572,4.36562 -0.0189,3.20375 -0.0319,3.20472 -3.13656,0.23304 z m -17.70455,-2.09337 c -0.32743,-0.1316 -0.59532,-0.3448 -0.59532,-0.47376 0,-0.41715 -1.28478,-1.63466 -1.72498,-1.63466 -0.30694,0 -0.38002,0.1491 -0.25939,0.52917 0.2002,0.63076 -0.0594,0.65882 -1.98424,0.21451 -1.35637,-0.31309 -1.36234,-0.31902 -1.19882,-1.19062 0.19637,-1.04679 0.001,-1.10659 -0.70067,-0.21452 -0.54849,0.69729 -1.27402,0.80897 -3.19388,0.49164 -0.96451,-0.15943 -1.40116,-0.62393 -0.58651,-0.62393 0.22312,0 1.00786,-0.30515 1.74387,-0.67812 2.26528,-1.1479 8.83374,0.7813 9.40751,2.76305 0.34208,1.18154 0.23612,1.27695 -0.90757,0.81724 z m -64.207766,-0.96646 c 0.100463,-0.55532 0.19663,-1.02616 0.213706,-1.04631 0.104768,-0.12366 5.265029,-1.68315 5.569437,-1.68315 1.574595,0 0.697574,1.83259 -1.080261,2.25727 -2.008505,0.47979 -2.011876,0.4795 -1.680005,-0.1406 0.460934,-0.86127 -0.637224,-0.6755 -1.369886,0.23173 -1.140782,1.41259 -1.870019,1.5807 -1.652991,0.38106 z m 11.942257,0.55958 c -2.230488,-0.54032 -2.921153,-0.94518 -2.040213,-1.19593 1.093014,-0.31112 2.432977,-0.2628 3.563029,0.12849 0.586948,0.20323 1.60296,0.52159 2.257804,0.70746 0.654844,0.18588 1.303734,0.43631 1.441979,0.55653 0.408815,0.3555 -3.560343,0.20613 -5.222599,-0.19655 z m 35.927489,0.15054 c 0.0899,-0.14552 0.44141,-0.26458 0.78105,-0.26458 0.33965,0 0.68607,-0.17859 0.76983,-0.39687 0.0838,-0.21829 0.39245,-0.39688 0.68597,-0.39688 0.29352,0 1.0414,-0.13384 1.66195,-0.29743 1.84074,-0.48526 3.88235,0.0585 2.50289,0.6666 -1.88715,0.83191 -6.81798,1.36273 -6.40169,0.68916 z m -40.949302,-2.76171 c -0.527745,-1.1067 0.436283,-1.46321 1.690273,-0.62509 0.381176,0.25477 1.03602,0.60194 1.455208,0.77151 0.76216,0.3083 0.76216,0.3083 0.100702,0.50938 -1.721661,0.52338 -2.786448,0.30827 -3.246183,-0.6558 z m 55.369092,-0.46642 c -1.23693,-0.40182 -2.73683,-0.85161 -3.3331,-0.99952 -1.08415,-0.26894 -1.08415,-0.26894 -0.0768,-1.32791 1.71972,-1.8078 4.63894,-1.15287 5.43184,1.21864 0.68552,2.05036 0.75655,2.01141 -2.02197,1.10879 z m -62.040668,0.0234 c 0.107367,-0.34747 0.367186,-0.96965 0.577375,-1.3826 0.343186,-0.67426 0.335826,-0.78472 -0.07217,-1.08305 -0.391418,-0.28621 -0.256628,-0.35596 0.973382,-0.50364 2.896456,-0.34778 3.320051,-0.26476 4.502025,0.88231 1.014944,0.98497 1.046933,1.05833 0.461464,1.05833 -0.345992,0 -1.699802,0.30746 -3.008467,0.68324 -3.80172,1.09165 -3.659775,1.07737 -3.433607,0.34541 z m -8.603074,-0.63564 c 0,-0.2733 1.154043,-1.71588 1.372674,-1.71588 0.570232,0 0.139004,1.08396 -0.578924,1.45521 -0.436563,0.22576 -0.79375,0.34306 -0.79375,0.26067 z m 80.338022,-0.46549 c -0.33049,-0.24166 -0.401,-0.49289 -0.24901,-0.88728 0.19949,-0.51766 0.24647,-0.49774 0.79515,0.33711 0.60872,0.92622 0.3393,1.19763 -0.54614,0.55017 z M 86.932783,183.0165 c -3.606062,-0.65448 -7.001289,-2.20812 -8.167868,-3.73759 -0.715267,-0.93776 -1.187851,-1.15253 -1.187851,-0.53983 0,1.20398 -5.386893,0.7563 -6.514194,-0.54136 -0.608188,-0.70009 -1.048583,-1.36635 -0.978656,-1.48056 0.298945,-0.48826 8.541484,-0.17255 8.814518,0.33762 0.553272,1.03379 7.829188,4.65981 8.826828,4.39892 0.30649,-0.0802 0.881348,0.15069 1.442744,0.57936 0.864266,0.65992 1.159741,0.72036 3.997561,0.81764 1.93456,0.0663 2.82046,0.17854 2.40287,0.30436 -1.06847,0.32194 -6.586495,0.2334 -8.635952,-0.13856 z m 28.636087,0.16504 c -0.13561,-0.21942 0.44387,-0.3036 2.09008,-0.3036 2.39148,0 3.29166,-0.27964 4.22692,-1.31309 0.4284,-0.47338 0.54378,-0.50351 0.66083,-0.17258 0.29107,0.82291 8.29411,-3.13714 8.99633,-4.45154 0.27751,-0.51944 0.48059,-0.54132 4.3173,-0.46522 4.48095,0.0889 4.77544,0.1906 3.78147,1.30616 -0.38143,0.42809 -0.84851,0.99032 -1.03794,1.24939 -0.51791,0.70827 -5.72686,0.3399 -5.92533,-0.41903 -0.11151,-0.4264 -0.27777,-0.33294 -1.12989,0.63512 -2.38126,2.70526 -14.84313,5.7735 -15.97977,3.93439 z m 27.50957,-0.75521 c -0.14359,-0.37708 -0.11319,-0.40747 0.14811,-0.14811 0.18082,0.17948 0.26212,0.39297 0.18066,0.47443 -0.0815,0.0815 -0.22941,-0.0654 -0.32877,-0.32632 z m -76.217001,-0.0775 c 0.08994,-0.14552 0.223053,-0.26459 0.295814,-0.26459 0.07276,0 0.05871,0.11907 -0.03123,0.26459 -0.08994,0.14552 -0.223053,0.26458 -0.295813,0.26458 -0.07276,0 -0.05871,-0.11906 0.03123,-0.26458 z m 6.010784,-1.89607 c 0.156659,-0.4744 4.364765,-0.93109 4.777392,-0.51847 0.433279,0.43328 0.270029,0.47944 -2.417092,0.68338 -2.007811,0.15239 -2.454766,0.12116 -2.3603,-0.16491 z m 61.259517,0.11304 c -1.13856,-0.0714 -1.52135,-0.19603 -1.52135,-0.49516 0,-0.33479 0.31145,-0.37317 1.91823,-0.23638 2.46699,0.21002 3.10885,0.34784 3.10885,0.66753 0,0.25336 -0.3782,0.26027 -3.50573,0.064 z m -16.33802,-2.68753 c 0.21828,-0.12163 1.28622,-0.43489 2.37319,-0.69615 1.24621,-0.29953 2.14836,-0.67915 2.44202,-1.02759 0.25614,-0.30392 0.7139,-0.85023 1.01725,-1.21404 0.38836,-0.46575 0.59347,-0.55972 0.69325,-0.31761 0.27424,0.66541 6.43887,-4.38083 6.43887,-5.27072 0,-0.97415 -1.36448,-4.06975 -3.04863,-6.91642 -2.02013,-3.41455 -2.02125,-3.58944 -0.0113,-1.75242 2.74578,2.50949 5.71451,8.12436 5.70405,10.78829 -0.002,0.51728 -1.44675,1.38898 -1.96955,1.18836 -0.20645,-0.0792 -1.00824,0.32608 -1.78175,0.90068 -2.84493,2.11331 -5.78831,3.43786 -9.26451,4.1691 -2.08702,0.43902 -3.23199,0.5046 -2.59293,0.14852 z M 62.642391,177.2556 c -0.05577,-0.1819 -0.290819,-0.91943 -0.522333,-1.63895 -0.231513,-0.71952 -0.330975,-1.39257 -0.221026,-1.49568 0.305405,-0.28639 4.274809,-1.34273 4.690115,-1.24813 0.686465,0.15637 -1.281427,2.63529 -2.640219,3.32585 -0.831565,0.42262 -1.185128,0.75029 -1.086602,1.00704 0.08033,0.20933 0.08652,0.3806 0.01376,0.3806 -0.07276,0 -0.177922,-0.14883 -0.233691,-0.33073 z m 84.520079,-0.0662 c 0,-0.0728 0.0595,-0.13229 0.13229,-0.13229 0.0728,0 0.13229,0.0595 0.13229,0.13229 0,0.0728 -0.0595,0.13229 -0.13229,0.13229 -0.0728,0 -0.13229,-0.0595 -0.13229,-0.13229 z m -0.85566,-0.94188 c -1.32244,-0.69823 -3.10171,-3.25267 -2.34925,-3.37275 1.86184,-0.2971 4.31436,1.06714 4.13023,2.29749 -0.27884,1.86312 -0.28347,1.86592 -1.78098,1.07526 z m -70.014417,-0.44384 c -1.027304,-0.0915 -1.10072,-0.14041 -0.676415,-0.45067 0.762285,-0.5574 -0.793213,-0.76247 -4.130041,-0.54448 -2.983867,0.19492 -5.5072,-1.63786 -3.189831,-2.31688 2.538352,-0.74378 8.41357,-0.31499 9.640554,0.70358 0.435748,0.36174 0.267868,2.82659 -0.1878,2.75732 -0.167248,-0.0254 -0.822658,-0.0924 -1.456467,-0.14887 z m 55.992517,-0.56827 c 0.0616,-0.41985 -0.0205,-1.01107 -0.18256,-1.31382 -0.76906,-1.43701 8.03009,-2.67639 10.15073,-1.42976 1.77632,1.04423 -0.71296,2.44861 -4.34018,2.44861 -3.03306,0 -5.44687,0.41536 -3.25199,0.5596 0.25466,0.0167 -0.0132,0.12893 -0.59531,0.24933 -1.78451,0.36912 -1.90519,0.33428 -1.78069,-0.51396 z m 7.46923,0.49878 c -0.66146,-0.21183 -0.66146,-0.21183 0.0661,-0.23821 0.40019,-0.0145 0.72761,0.0927 0.72761,0.23821 0,0.14552 -0.0298,0.25272 -0.0661,0.23821 -0.0364,-0.0145 -0.3638,-0.1217 -0.7276,-0.23821 z m -69.635018,-0.18074 c 0.190996,-0.0764 0.419199,-0.067 0.507118,0.0209 0.08792,0.0879 -0.06835,0.15045 -0.347266,0.13897 -0.308224,-0.0127 -0.370919,-0.0754 -0.159852,-0.15986 z m 5.927837,-32.46368 c -0.587584,-0.63745 -1.51449,-1.85784 -2.059791,-2.71198 -0.545301,-0.85413 -1.210808,-1.87557 -1.478905,-2.26986 -0.889529,-1.30823 -0.511101,-1.07167 2.092239,1.30792 3.294441,3.01129 3.849122,3.38258 5.908804,3.95522 1.697462,0.47194 1.697462,0.47194 0.639381,0.65957 -2.869187,0.50882 -3.949021,0.30967 -5.101728,-0.94087 z m 52.859261,0.91204 c -0.92604,-0.1773 -0.92604,-0.1773 0.21495,-0.38809 2.35851,-0.43571 4.6424,-1.87684 7.08744,-4.47218 2.36628,-2.51172 2.38015,-2.40948 0.1545,1.13849 -2.50316,3.99036 -3.48768,4.48174 -7.45689,3.72178 z m -4.83925,-15.49574 c 0.2116,-2.4311 -0.33258,-5.26439 -1.45551,-7.5782 -0.94241,-1.94184 0.0524,-2.31369 1.95832,-0.73196 0.7791,0.6466 0.62055,5.95397 -0.26012,8.70703 -0.38087,1.19063 -0.38087,1.19063 -0.24269,-0.39687 z m -37.886188,0.85989 c -1.59524,-4.75631 -1.221675,-8.64167 0.935569,-9.73065 1.963582,-0.99121 1.9773,-0.98886 1.197994,0.20565 -1.234579,1.89235 -1.829439,4.18579 -1.85255,7.14239 -0.02091,2.67448 -0.06311,3.03231 -0.281013,2.38261 z m -9.117527,-2.13761 c -4.656531,-1.88888 -4.852506,-3.8428 -0.599692,-5.97908 1.135457,-0.57037 1.135457,-0.57037 0.595312,0.4884 -0.984121,1.92904 -0.778902,2.73608 1.223056,4.80975 0.969759,1.00449 1.7139,1.82079 1.653645,1.81399 -0.06025,-0.007 -1.352799,-0.51668 -2.872321,-1.13306 z m 55.116875,-0.72957 c 2.00007,-2.16026 2.11822,-2.65129 1.09916,-4.56789 -0.79028,-1.48631 -0.72763,-1.4963 1.44869,-0.23093 3.14627,1.82932 2.94056,3.84908 -0.53009,5.2047 -0.65485,0.25578 -1.7712,0.69515 -2.48078,0.97638 -1.29015,0.51133 -1.29015,0.51133 0.46302,-1.38226 z M 83.133314,111.48982 c 0,-0.43467 3.978511,-4.50389 5.184464,-5.30268 1.685968,-1.11674 4.033027,-1.83998 6.939037,-2.13825 1.81759,-0.18656 2.75879,-0.4246 3.57867,-0.90508 1.898545,-1.11262 4.083445,-2.2867 4.255435,-2.2867 0.0903,0 -0.46388,0.74977 -1.23158,1.66616 -0.7677,0.91639 -1.968165,2.41359 -2.667705,3.32711 -1.55196,2.0267 -1.99158,2.22166 -6.59219,2.9235 -3.459662,0.52778 -6.326521,1.35321 -8.473943,2.43984 -0.545703,0.27613 -0.992188,0.40038 -0.992188,0.2761 z m 41.804156,-0.84258 c -2.4972,-1.11012 -3.40995,-1.34643 -8.18703,-2.11961 -3.80167,-0.61532 -4.04146,-0.73946 -5.72901,-2.96603 -0.69272,-0.91398 -1.92289,-2.43086 -2.7337,-3.37083 l -1.47422,-1.70905 3.04271,1.60797 c 2.83785,1.4997 3.22321,1.6289 5.72369,1.91896 4.95972,0.57534 8.47642,2.67896 11.42879,6.83648 0.74363,1.04718 0.72567,1.04546 -2.07123,-0.19789 z"
       id="path7" /></g></svg>
